# xmcd CD database file
#
# Track frame offsets:
#	150
#	25511
#	47068
#	68087
#	87023
#	109556
#	128508
#	154175
#	174740
#	195561
#	224496
#	268701
#
# Disc length: 3964 seconds
#
# Revision: 0
# Processed by: cddbd v1.5.2PL0 Copyright (c) Steve Scherf et al.
# Submitted via: CDex 1.70beta2
#
DISCID=9b0f7a0c
DTITLE=Never Like Now - Expatriate Blues
DYEAR=2003
DGENRE=Jazz
TTITLE0=Shucks
TTITLE1=Sowelu
TTITLE2=Eohippus
TTITLE3=Incantation
TTITLE4=N'de Baaku
TTITLE5=The Event Horizon
TTITLE6=Way Back
TTITLE7=Stick Figure
TTITLE8=Go' Is Gone
TTITLE9=Vertical Fold
TTITLE10=Expatriate Blues
TTITLE11=Sand Dance
EXTD=YEAR: 2003
EXTT0=
EXTT1=
EXTT2=
EXTT3=
EXTT4=
EXTT5=
EXTT6=
EXTT7=
EXTT8=
EXTT9=
EXTT10=
EXTT11=
PLAYORDER=
